/* XPM */
static char *_ecaeadb45244460b0d660518424b6500t79syKGwisZ7zwp[] = {
/* columns rows colors chars-per-pixel */
"32 32 9 1 ",
"  c None",
". c black",
"X c #252525",
"o c gray29",
"O c gray40",
"+ c #848484",
"@ c gray70",
"# c gray85",
"$ c white",
/* pixels */
"        ................        ",
"        ................        ",
"      ..$$oooo$$$$$$$$OO..      ",
"      ..$$oooo$$$$$$$$OO..      ",
"    ..##$$$$$$oo$$$$$$$$OO..    ",
"    ..##$$$$$$oo$$$$$$$$OO..    ",
"    ..##$$$$$$oo$$$$$$$$OO..    ",
"    ..##$$$$$$oo$$$$$$$$OO..    ",
"    ..##@@##$$$$oo$$##@@OO..    ",
"    ..##@@##$$$$oo$$##@@OO..    ",
"  ..@@##XX@@$$$$$$$$@@XX@@OO..  ",
"  ..@@##XX@@$$$$$$$$@@XX@@OO..  ",
"  ..$$##XXXX$$$$$$$$XXXX@@OO..  ",
"  ..$$##XXXX$$$$$$$$XXXX@@OO..  ",
"  ..OO$$XXXX$$$$$$$$XXXX@@OO..  ",
"  ..OO$$XXXX$$$$$$$$XXXX@@OO..  ",
"  ..oo$$$$$$$$XXXX$$$$$$@@oo..  ",
"  ..oo$$$$$$$$XXXX$$$$$$@@oo..  ",
"  ..ooooOO$$$$XXXX$$@@OOoooo..  ",
"  ..ooooOO$$$$XXXX$$@@OOoooo..  ",
"    ..XXXXXX@@##@@@@XXXXXX..    ",
"    ..XXXXXX@@##@@@@XXXXXX..    ",
"      ..OO$$XXXXXXXX$$OO..      ",
"      ..OO$$XXXXXXXX$$OO..      ",
"      ..OO@@$$$$$$$$@@OO..      ",
"      ..OO@@$$$$$$$$@@OO..      ",
"        ..OO++++++++OO..        ",
"        ..OO++++++++OO..        ",
"        ................        ",
"        ................        ",
"                                ",
"                                "
};
