/* XPM */
static char *_8d2723216374c7ab98e2b0cb4ff86645RmSZSGtw4O9drpZ[] = {
/* columns rows colors chars-per-pixel */
"32 32 8 1 ",
"  c None",
". c black",
"X c #320B0B",
"o c #701313",
"O c #9D1818",
"+ c #E62222",
"@ c #FC5B5B",
"# c #FFA3A3",
/* pixels */
"        ................        ",
"        ................        ",
"      ..@@oooo@@@@@@@@OO..      ",
"      ..@@oooo@@@@@@@@OO..      ",
"    ..##@@@@@@oo@@@@@@@@OO..    ",
"    ..##@@@@@@oo@@@@@@@@OO..    ",
"    ..##@@@@@@oo@@@@@@@@OO..    ",
"    ..##@@@@@@oo@@@@@@@@OO..    ",
"    ..##++##@@@@oo@@##++OO..    ",
"    ..##++##@@@@oo@@##++OO..    ",
"  ..++##XX++@@@@@@@@++XX++OO..  ",
"  ..++##XX++@@@@@@@@++XX++OO..  ",
"  ..@@##XXXX@@@@@@@@XXXX++OO..  ",
"  ..@@##XXXX@@@@@@@@XXXX++OO..  ",
"  ..OO@@XXXX@@@@@@@@XXXX++OO..  ",
"  ..OO@@XXXX@@@@@@@@XXXX++OO..  ",
"  ..oo@@@@@@@@XXXX@@@@@@++oo..  ",
"  ..oo@@@@@@@@XXXX@@@@@@++oo..  ",
"  ..ooooOO@@@@XXXX@@++OOoooo..  ",
"  ..ooooOO@@@@XXXX@@++OOoooo..  ",
"    ..XXXXXX++++++++XXXXXX..    ",
"    ..XXXXXX++++++++XXXXXX..    ",
"      ..OO@@XXXXXXXX@@OO..      ",
"      ..OO@@XXXXXXXX@@OO..      ",
"      ..OO++@@@@@@@@++OO..      ",
"      ..OO++@@@@@@@@++OO..      ",
"        ..OO++++++++OO..        ",
"        ..OO++++++++OO..        ",
"        ................        ",
"        ................        ",
"                                ",
"                                "
};
