/* XPM */
static char *_53075fb9d9f46d7b601d0b8e1926271sInNcqamVZKjRDtP[] = {
/* columns rows colors chars-per-pixel */
"32 32 13 1 ",
"  c None",
". c black",
"X c #252525",
"o c #331C4A",
"O c #573379",
"+ c #E0A861",
"@ c #7E32C2",
"# c #9A5AD3",
"$ c #848484",
"% c gray70",
"& c #F1C085",
"* c gray85",
"= c white",
/* pixels */
"       ......      ......       ",
"       ......      ......       ",
"     ..######..  ..######..     ",
"     ..######..  ..######..     ",
" ......@@XX##@@..@@##XX@@...... ",
" ......@@XX##@@..@@##XX@@...... ",
" ..====$$@@@@@@OO@@@@@@$$====.. ",
" ..====$$@@@@@@OO@@@@@@$$====.. ",
" ..####OOOOOO@@XX@@OOOOOO####.. ",
" ..####OOOOOO@@XX@@OOOOOO####.. ",
" ..##########XXOOXX##########.. ",
" ..##########XXOOXX##########.. ",
" ..==========####OOXX========.. ",
" ..==========####OOXX========.. ",
" ..**********@@@@@@$$XX******.. ",
" ..**********@@@@@@$$XX******.. ",
" ..**********@@@@@@**XX******.. ",
" ..**********@@@@@@**XX******.. ",
" ....$$$$$$$$oooooo$$XX$$$$.... ",
" ....$$$$$$$$oooooo$$XX$$$$.... ",
"   ..%%%%%%%%OOOOOO$$XX$$%%..   ",
"   ..%%%%%%%%OOOOOO$$XX$$%%..   ",
"   ..%%%%%%%%OOOOOO$$++&&%%..   ",
"   ..%%%%%%%%OOOOOO$$++&&%%..   ",
"   ..%%%%%%%%OOOOOO$$&&&&%%..   ",
"   ..%%%%%%%%OOOOOO$$&&&&%%..   ",
"   ..%%%%%%%%OOOOOO$$++++%%..   ",
"   ..%%%%%%%%OOOOOO$$++++%%..   ",
"   ..%%%%%%%%OOOOOO%%$$$$%%..   ",
"   ..%%%%%%%%OOOOOO%%$$$$%%..   ",
"   ..........................   ",
"   ..........................   "
};
