/* XPM */
static char *_243f9c04d9a443c9834588244999360syzYSMbVHnGqyo8v[] = {
/* columns rows colors chars-per-pixel */
"32 32 7 1 ",
"  c None",
". c black",
"X c #573379",
"o c #7E32C2",
"O c #9A5AD3",
"+ c #CA95FA",
"@ c white",
/* pixels */
"                                ",
"                                ",
"          ..........            ",
"          ..........            ",
"      ....@@@@@@@@@@....        ",
"      ....@@@@@@@@@@....        ",
"    ..@@++++@@@@@@++++@@..      ",
"    ..@@++++@@@@@@++++@@..      ",
"  ..@@OOOO@@++@@++@@OOOO@@..    ",
"  ..@@OOOO@@++@@++@@OOOO@@..    ",
"..@@OOOO++OOOO@@OOOO++OOOO@@..  ",
"..@@OOOO++OOOO@@OOOO++OOOO@@..  ",
"..++ooOOoooo@@@@@@ooooOOoo++..  ",
"..++ooOOoooo@@@@@@ooooOOoo++..  ",
"..oo++++++@@@@@@@@@@++++++oo..  ",
"..oo++++++@@@@@@@@@@++++++oo..  ",
"  ..XXXX++ooXX@@XXoo++XXXX..    ",
"  ..XXXX++ooXX@@XXoo++XXXX..    ",
"    ..XXoo++oo@@oo++ooXX..      ",
"    ..XXoo++oo@@oo++ooXX..      ",
"      ..XXoooo++ooooXX..        ",
"      ..XXoooo++ooooXX..        ",
"        ..XXoo++ooXX..          ",
"        ..XXoo++ooXX..          ",
"          ..XX++XX..            ",
"          ..XX++XX..            ",
"            ..oo..              ",
"            ..oo..              ",
"              ..                ",
"              ..                ",
"                                ",
"                                "
};
