/* XPM */
static char *fd2a09dcb5934dbc985f5f90ad45bc00dm6EKucx3M5xA3dg[] = {
/* columns rows colors chars-per-pixel */
"32 32 5 1 ",
"  c None",
". c black",
"X c gray40",
"o c gray70",
"O c gray85",
/* pixels */
"              ......            ",
"              ......            ",
"            ..OOOOOO..          ",
"            ..OOOOOO..          ",
"          ..OOoo..oooo..        ",
"          ..OOoo..oooo..        ",
"          ..OO..  ..oo..        ",
"          ..OO..  ..oo..        ",
"          ..ooXX..ooXX..        ",
"          ..ooXX..ooXX..        ",
"            ..ooOOXX..          ",
"            ..ooOOXX..          ",
"              ..XX..            ",
"              ..XX..            ",
"              ..oo..            ",
"              ..oo..            ",
"              ..oo..            ",
"              ..oo..            ",
"            ....oo..            ",
"            ....oo..            ",
"            ..OOoo..            ",
"            ..OOoo..            ",
"              ..oo..            ",
"              ..oo..            ",
"          ......XX..            ",
"          ......XX..            ",
"          ..OOoooo..            ",
"          ..OOoooo..            ",
"          ......XX..            ",
"          ......XX..            ",
"              ......            ",
"              ......            "
};
